<svg xmlns="http://www.w3.org/2000/svg" viewBox="0 0 800 400" preserveAspectRatio="xMidYMid slice" role="img" aria-label="二日酔いケアのヒーローイメージ">
  <defs>
    <linearGradient id="hangoverBg" x1="0" y1="0" x2="0" y2="1">
      <stop offset="0%" stop-color="#87a8c4"/>
      <stop offset="40%" stop-color="#d4b896"/>
      <stop offset="80%" stop-color="#f4d4a0"/>
      <stop offset="100%" stop-color="#fce8c8"/>
    </linearGradient>
    <radialGradient id="sun" cx="0.5" cy="0.5" r="0.5">
      <stop offset="0%" stop-color="#fff8dc"/>
      <stop offset="50%" stop-color="#ffd87a"/>
      <stop offset="100%" stop-color="rgba(255,216,122,0)"/>
    </radialGradient>
    <linearGradient id="water" x1="0" y1="0" x2="0" y2="1">
      <stop offset="0%" stop-color="#b8d8e8" stop-opacity="0.6"/>
      <stop offset="100%" stop-color="#6da5c0" stop-opacity="0.85"/>
    </linearGradient>
  </defs>
  <rect width="800" height="400" fill="url(#hangoverBg)"/>
  <circle cx="640" cy="200" r="160" fill="url(#sun)"/>
  <circle cx="640" cy="200" r="80" fill="#fff8dc" opacity="0.9"/>
  <g stroke="#ffd87a" stroke-width="2" opacity="0.55" stroke-linecap="round">
    <line x1="640" y1="50" x2="640" y2="90"/>
    <line x1="640" y1="310" x2="640" y2="350"/>
    <line x1="490" y1="200" x2="530" y2="200"/>
    <line x1="750" y1="200" x2="790" y2="200"/>
    <line x1="540" y1="100" x2="570" y2="130"/>
    <line x1="710" y1="270" x2="740" y2="300"/>
    <line x1="540" y1="300" x2="570" y2="270"/>
    <line x1="710" y1="130" x2="740" y2="100"/>
  </g>
  <g opacity="0.25">
    <ellipse cx="200" cy="250" rx="120" ry="20" fill="#fff"/>
    <ellipse cx="400" cy="260" rx="100" ry="15" fill="#fff"/>
    <ellipse cx="600" cy="330" rx="140" ry="22" fill="#fff"/>
  </g>
  <g transform="translate(220,220)">
    <path d="M -50 -60 L 50 -60 L 45 90 Q 0 100 -45 90 Z"
          fill="url(#water)" stroke="#5a8aa5" stroke-width="2" stroke-opacity="0.5"/>
    <ellipse cx="0" cy="-60" rx="50" ry="9" fill="#d8e8f0" stroke="#5a8aa5" stroke-width="1.5" stroke-opacity="0.5"/>
    <ellipse cx="0" cy="-55" rx="44" ry="5" fill="#fff" opacity="0.55"/>
    <g transform="translate(15,-55)">
      <ellipse cx="0" cy="0" rx="18" ry="6" fill="#ffd87a" opacity="0.85"/>
      <path d="M -18 0 L -12 -4 L 0 -6 L 12 -4 L 18 0" fill="none" stroke="#d4a824" stroke-width="1"/>
      <line x1="0" y1="-6" x2="0" y2="4" stroke="#d4a824" stroke-width="0.8"/>
      <line x1="-9" y1="-3" x2="9" y2="3" stroke="#d4a824" stroke-width="0.8"/>
    </g>
    <ellipse cx="-22" cy="0" rx="8" ry="3" fill="#fff" opacity="0.45"/>
    <ellipse cx="18" cy="30" rx="5" ry="2" fill="#fff" opacity="0.4"/>
  </g>
  <g transform="translate(400,300)">
    <path d="M 0 -20 Q -12 -5 -12 5 Q -12 15 0 15 Q 12 15 12 5 Q 12 -5 0 -20 Z"
          fill="#6da5c0" opacity="0.7"/>
    <ellipse cx="-3" cy="0" rx="3" ry="4" fill="#fff" opacity="0.6"/>
  </g>
  <g transform="translate(440,340)">
    <path d="M 0 -14 Q -8 -3 -8 4 Q -8 10 0 10 Q 8 10 8 4 Q 8 -3 0 -14 Z"
          fill="#6da5c0" opacity="0.6"/>
  </g>
  <g transform="translate(350,330)">
    <path d="M 0 -10 Q -6 -2 -6 3 Q -6 8 0 8 Q 6 8 6 3 Q 6 -2 0 -10 Z"
          fill="#6da5c0" opacity="0.55"/>
  </g>
  <text x="45" y="78" fill="#3C2A1E" font-size="36" font-weight="bold" font-family="'Hiragino Mincho ProN','Yu Mincho',serif" letter-spacing="3">二日酔いケア</text>
  <text x="45" y="108" fill="#3C2A1E" font-size="13" opacity="0.7" font-family="sans-serif" letter-spacing="2">HANGOVER CARE / 翌朝のためのケア</text>
  <line x1="45" y1="120" x2="220" y2="120" stroke="#8B6914" stroke-width="1" opacity="0.55"/>
</svg>
