<svg xmlns="http://www.w3.org/2000/svg" viewBox="0 0 800 400" preserveAspectRatio="xMidYMid slice" role="img" aria-label="焼酎のヒーローイメージ">
  <defs>
    <linearGradient id="shochuBg" x1="0" y1="0" x2="1" y2="1">
      <stop offset="0%" stop-color="#2a1810"/>
      <stop offset="50%" stop-color="#5c2e24"/>
      <stop offset="100%" stop-color="#A52D35"/>
    </linearGradient>
    <radialGradient id="shochuGlow" cx="0.7" cy="0.3" r="0.7">
      <stop offset="0%" stop-color="rgba(255,220,150,0.35)"/>
      <stop offset="100%" stop-color="rgba(255,220,150,0)"/>
    </radialGradient>
    <linearGradient id="kuroJoka" x1="0" y1="0" x2="0" y2="1">
      <stop offset="0%" stop-color="#1a1a1a"/>
      <stop offset="100%" stop-color="#0a0a0a"/>
    </linearGradient>
  </defs>
  <rect width="800" height="400" fill="url(#shochuBg)"/>
  <circle cx="600" cy="120" r="220" fill="url(#shochuGlow)"/>
  <g opacity="0.08">
    <circle cx="100" cy="350" r="3" fill="#fff"/>
    <circle cx="150" cy="380" r="2" fill="#fff"/>
    <circle cx="720" cy="360" r="3" fill="#fff"/>
    <circle cx="680" cy="390" r="2" fill="#fff"/>
  </g>
  <g opacity="0.35" transform="translate(180,250)">
    <path d="M -10 -60 Q -5 -75 5 -70 Q 8 -60 0 -55 Z" fill="#DAA520"/>
    <path d="M -10 -60 L -12 -40" stroke="#DAA520" stroke-width="2" fill="none"/>
  </g>
  <g transform="translate(220,230)">
    <ellipse cx="0" cy="50" rx="95" ry="55" fill="url(#kuroJoka)"/>
    <ellipse cx="0" cy="35" rx="95" ry="18" fill="#2a2a2a"/>
    <path d="M -95 35 Q -120 25 -115 58 L -100 62 Q -103 40 -90 37 Z" fill="url(#kuroJoka)"/>
    <path d="M 90 10 Q 125 10 125 55 Q 125 68 102 73" stroke="#1a1a1a" stroke-width="9" fill="none" stroke-linecap="round"/>
    <ellipse cx="0" cy="10" rx="18" ry="6" fill="#2a2a2a"/>
    <circle cx="0" cy="6" r="5" fill="#1a1a1a"/>
    <path d="M -5 -5 Q -8 -20 -3 -30" stroke="#F5DEB3" stroke-width="2" fill="none" opacity="0.35"/>
    <path d="M 3 -5 Q 6 -25 1 -35" stroke="#F5DEB3" stroke-width="2" fill="none" opacity="0.25"/>
  </g>
  <g transform="translate(500,300)">
    <ellipse cx="0" cy="0" rx="45" ry="11" fill="#F5DEB3" opacity="0.95"/>
    <path d="M -45 0 L -38 40 Q 0 48 38 40 L 45 0 Z" fill="#F5DEB3" opacity="0.95"/>
    <ellipse cx="0" cy="0" rx="40" ry="8" fill="#DAA520" opacity="0.6"/>
    <ellipse cx="0" cy="-1" rx="36" ry="6" fill="#8B4513" opacity="0.5"/>
  </g>
  <g opacity="0.2" transform="translate(650,320)">
    <ellipse cx="0" cy="0" rx="55" ry="28" fill="#8B4513" transform="rotate(-20)"/>
    <ellipse cx="15" cy="-5" rx="40" ry="20" fill="#A0522D" transform="rotate(-15)"/>
  </g>
  <text x="45" y="78" fill="#F5DEB3" font-size="38" font-weight="bold" font-family="'Hiragino Mincho ProN','Yu Mincho',serif" letter-spacing="4">焼酎</text>
  <text x="45" y="108" fill="#F5DEB3" font-size="13" opacity="0.75" font-family="sans-serif" letter-spacing="2">SHOCHU / Japanese Distilled Spirit</text>
  <line x1="45" y1="120" x2="180" y2="120" stroke="#DAA520" stroke-width="1" opacity="0.6"/>
</svg>
