<svg xmlns="http://www.w3.org/2000/svg" viewBox="0 0 800 400" preserveAspectRatio="xMidYMid slice" role="img" aria-label="お酒と料理のマリアージュのヒーローイメージ">
  <defs>
    <linearGradient id="pairingBg" x1="0" y1="0" x2="1" y2="1">
      <stop offset="0%" stop-color="#2a1a10"/>
      <stop offset="50%" stop-color="#5a3f28"/>
      <stop offset="100%" stop-color="#8B6914"/>
    </linearGradient>
    <radialGradient id="pairingGlow" cx="0.5" cy="0.5" r="0.6">
      <stop offset="0%" stop-color="rgba(255,220,150,0.4)"/>
      <stop offset="100%" stop-color="rgba(255,220,150,0)"/>
    </radialGradient>
    <linearGradient id="wineGlass2" x1="0" y1="0" x2="0" y2="1">
      <stop offset="0%" stop-color="#a52d35"/>
      <stop offset="100%" stop-color="#4a0e1a"/>
    </linearGradient>
    <radialGradient id="plateGrad" cx="0.5" cy="0.5" r="0.5">
      <stop offset="0%" stop-color="#f8f0e0"/>
      <stop offset="100%" stop-color="#d8c8a8"/>
    </radialGradient>
  </defs>
  <rect width="800" height="400" fill="url(#pairingBg)"/>
  <circle cx="400" cy="200" r="280" fill="url(#pairingGlow)"/>
  <g transform="translate(270,210)">
    <path d="M -55 -90 Q -55 -55 -42 -30 Q -33 -12 -33 8 L -33 72 L -48 72 L -48 80 L 48 80 L 48 72 L 33 72 L 33 8 Q 33 -12 42 -30 Q 55 -55 55 -90 Z"
          fill="#f5e8d8" opacity="0.15" stroke="#fff" stroke-width="1" stroke-opacity="0.6"/>
    <path d="M -52 -85 Q -52 -58 -40 -35 Q -31 -17 -31 5 L 31 5 Q 31 -17 40 -35 Q 52 -58 52 -85 Z"
          fill="url(#wineGlass2)" opacity="0.92"/>
    <ellipse cx="-18" cy="-62" rx="10" ry="4" fill="#fff" opacity="0.2"/>
  </g>
  <g transform="translate(530,230)">
    <ellipse cx="0" cy="60" rx="120" ry="20" fill="#1a1008" opacity="0.4"/>
    <ellipse cx="0" cy="40" rx="130" ry="30" fill="url(#plateGrad)"/>
    <ellipse cx="0" cy="35" rx="130" ry="28" fill="none" stroke="#8B6914" stroke-width="1.5" opacity="0.5"/>
    <ellipse cx="0" cy="35" rx="105" ry="20" fill="#fff" opacity="0.45"/>
    <ellipse cx="0" cy="35" rx="105" ry="20" fill="none" stroke="#8B6914" stroke-width="0.8" opacity="0.4"/>
    <g transform="translate(-25,25)">
      <ellipse cx="0" cy="0" rx="22" ry="14" fill="#c44523" opacity="0.85"/>
      <ellipse cx="-3" cy="-3" rx="10" ry="5" fill="#fff" opacity="0.35"/>
    </g>
    <g transform="translate(25,30)">
      <circle cx="0" cy="0" r="12" fill="#6a8f3a" opacity="0.8"/>
      <circle cx="-4" cy="-4" r="3" fill="#fff" opacity="0.4"/>
    </g>
    <g transform="translate(0,38)">
      <ellipse cx="0" cy="0" rx="10" ry="6" fill="#d4a54a" opacity="0.85"/>
    </g>
  </g>
  <g transform="translate(400,130)">
    <path d="M 0 -18 Q -14 -18 -14 -5 Q -14 6 0 18 Q 14 6 14 -5 Q 14 -18 0 -18 Z" fill="#f5e8d8" opacity="0.55"/>
  </g>
  <g opacity="0.3" stroke="#DAA520" fill="none" stroke-width="1.2">
    <path d="M 350 140 Q 400 120 450 140" stroke-linecap="round"/>
    <circle cx="340" cy="140" r="2" fill="#DAA520"/>
    <circle cx="460" cy="140" r="2" fill="#DAA520"/>
  </g>
  <text x="45" y="78" fill="#f5e8d8" font-size="34" font-weight="bold" font-family="'Hiragino Mincho ProN','Yu Mincho',serif" letter-spacing="3">マリアージュ</text>
  <text x="45" y="108" fill="#f5e8d8" font-size="13" opacity="0.8" font-family="sans-serif" letter-spacing="2">FOOD &amp; DRINK PAIRING / お酒と料理の結婚</text>
  <line x1="45" y1="120" x2="260" y2="120" stroke="#DAA520" stroke-width="1" opacity="0.6"/>
</svg>
