<svg xmlns="http://www.w3.org/2000/svg" viewBox="0 0 800 400" preserveAspectRatio="xMidYMid slice" role="img" aria-label="ワインのヒーローイメージ">
  <defs>
    <linearGradient id="wineBg" x1="0" y1="0" x2="1" y2="1">
      <stop offset="0%" stop-color="#2d0e16"/>
      <stop offset="55%" stop-color="#6B1E2E"/>
      <stop offset="100%" stop-color="#8B2942"/>
    </linearGradient>
    <radialGradient id="wineGlow" cx="0.25" cy="0.3" r="0.6">
      <stop offset="0%" stop-color="rgba(255,180,170,0.30)"/>
      <stop offset="100%" stop-color="rgba(255,180,170,0)"/>
    </radialGradient>
    <linearGradient id="wineLiquid" x1="0" y1="0" x2="0" y2="1">
      <stop offset="0%" stop-color="#9b1b30"/>
      <stop offset="100%" stop-color="#4a0d16"/>
    </linearGradient>
    <radialGradient id="grape" cx="0.35" cy="0.35" r="0.6">
      <stop offset="0%" stop-color="#7a2a4a"/>
      <stop offset="100%" stop-color="#2a0a18"/>
    </radialGradient>
  </defs>
  <rect width="800" height="400" fill="url(#wineBg)"/>
  <circle cx="200" cy="150" r="240" fill="url(#wineGlow)"/>
  <g opacity="0.08">
    <circle cx="700" cy="80" r="2" fill="#fff"/>
    <circle cx="730" cy="120" r="3" fill="#fff"/>
    <circle cx="60" cy="300" r="2" fill="#fff"/>
  </g>
  <g transform="translate(540,200)">
    <path d="M -65 -100 Q -65 -60 -50 -30 Q -40 -10 -40 10 L -40 90 L -58 90 L -58 98 L 58 98 L 58 90 L 40 90 L 40 10 Q 40 -10 50 -30 Q 65 -60 65 -100 Z"
          fill="#f8e8dc" opacity="0.12" stroke="#fff" stroke-width="1" stroke-opacity="0.55"/>
    <path d="M -62 -95 Q -62 -62 -48 -35 Q -38 -15 -38 8 L 38 8 Q 38 -15 48 -35 Q 62 -62 62 -95 Z"
          fill="url(#wineLiquid)" opacity="0.95"/>
    <ellipse cx="0" cy="-95" rx="62" ry="8" fill="#3a0a16" opacity="0.8"/>
    <ellipse cx="-20" cy="-70" rx="14" ry="5" fill="#fff" opacity="0.12"/>
  </g>
  <g transform="translate(220,250)" opacity="0.9">
    <circle cx="0" cy="0" r="16" fill="url(#grape)"/>
    <circle cx="-22" cy="8" r="15" fill="url(#grape)"/>
    <circle cx="22" cy="8" r="15" fill="url(#grape)"/>
    <circle cx="-12" cy="28" r="15" fill="url(#grape)"/>
    <circle cx="12" cy="28" r="15" fill="url(#grape)"/>
    <circle cx="0" cy="45" r="14" fill="url(#grape)"/>
    <circle cx="-25" cy="-15" r="13" fill="url(#grape)"/>
    <circle cx="25" cy="-15" r="13" fill="url(#grape)"/>
    <path d="M 0 -30 Q 5 -45 -5 -55 Q -15 -60 -10 -45 Q -20 -40 -15 -30" fill="#3a5c2a" opacity="0.9"/>
    <path d="M -10 -45 Q -25 -50 -35 -35" stroke="#3a5c2a" stroke-width="2" fill="none"/>
  </g>
  <g opacity="0.15" stroke="#DAA520" fill="none" stroke-width="1.5">
    <path d="M 100 380 Q 200 340 300 380" />
    <path d="M 500 380 Q 600 340 700 380" />
  </g>
  <text x="45" y="78" fill="#f8e8dc" font-size="38" font-weight="bold" font-family="'Hiragino Mincho ProN','Yu Mincho',serif" letter-spacing="4">ワイン</text>
  <text x="45" y="108" fill="#f8e8dc" font-size="13" opacity="0.78" font-family="sans-serif" letter-spacing="2">WINE / 8000年の歴史を持つ醸造酒</text>
  <line x1="45" y1="120" x2="200" y2="120" stroke="#DAA520" stroke-width="1" opacity="0.6"/>
</svg>
